<?xml version="1.0" encoding="UTF-8" standalone="no"?>
<!DOCTYPE svg PUBLIC "-//W3C//DTD SVG 1.1//EN" "http://www.w3.org/Graphics/SVG/1.1/DTD/svg11.dtd">
<svg xmlns="http://www.w3.org/2000/svg" xmlns:xl="http://www.w3.org/1999/xlink" xmlns:dc="http://purl.org/dc/elements/1.1/" version="1.1" viewBox="0 0 16 16" width="16" height="16">
  <defs/>
  <g id="favicon-pinned-svg465" stroke="none" fill="none" stroke-dasharray="none" stroke-opacity="1" fill-opacity="1">
    <title>favicon-pinned-svg465</title>
    <g id="favicon-pinned-svg465_Layer_1">
      <title>Layer 1</title>
      <g id="Graphic_16">
        <path d="M 12.838346 7.436388 L 12.936466 6.1172026 L 15.585714 6.1172026 L 15.585714 5.005162 L 11.868045 5.005162 L 11.617293 8.363089 L 12.413158 8.559332 C 12.587595 8.432137 12.772023 8.329474 12.966447 8.25134 C 13.160872 8.173206 13.372555 8.1341395 13.601504 8.1341395 C 13.946743 8.1341395 14.212938 8.2259 14.400094 8.409424 C 14.58725 8.592948 14.680827 8.846426 14.680827 9.169864 C 14.680827 9.464229 14.599061 9.704987 14.435526 9.892145 C 14.271992 10.079303 14.026693 10.172881 13.699624 10.172881 C 13.561528 10.172881 13.433428 10.154711 13.31532 10.118369 C 13.197211 10.082028 13.09364 10.022974 13.004605 9.941206 C 12.91557 9.859438 12.844706 9.754049 12.792011 9.625037 C 12.739317 9.496026 12.711153 9.340668 12.707519 9.158961 L 11.431955 9.158961 C 11.431955 9.489668 11.489191 9.781303 11.603665 10.033876 C 11.71814 10.286449 11.877129 10.499043 12.080639 10.671664 C 12.284149 10.844286 12.526721 10.975113 12.808364 11.064149 C 13.090008 11.153186 13.397993 11.197703 13.73233 11.197703 C 14.095741 11.197703 14.419171 11.146826 14.702632 11.04507 C 14.986092 10.943314 15.223213 10.801585 15.414004 10.619878 C 15.604794 10.438171 15.750156 10.221034 15.850094 9.968462 C 15.950032 9.715889 16 9.43879 16 9.137157 C 16 8.842792 15.954574 8.572961 15.863722 8.327656 C 15.77287 8.082352 15.642043 7.870667 15.47124 7.692594 C 15.300438 7.514521 15.092388 7.376426 14.847086 7.278304 C 14.601784 7.180182 14.324688 7.131122 14.01579 7.131122 C 13.76867 7.131122 13.546085 7.160195 13.348026 7.218341 C 13.149968 7.276487 12.980076 7.349169 12.838346 7.436388 Z M 8.351128 4.802297 L 8.351128 4.802297 C 7.9731815 4.802297 7.628855 4.8695274 7.3181395 5.0039906 C 7.007424 5.138454 6.742138 5.339237 6.522275 5.606346 C 6.3024115 5.873455 6.13252 6.2068825 6.012594 6.606638 C 5.892669 7.006393 5.832707 7.469739 5.832707 7.996689 C 5.832707 8.505468 5.889035 8.953369 6.001692 9.340405 C 6.114349 9.727441 6.2760645 10.051783 6.4868425 10.313441 C 6.6976205 10.575099 6.953821 10.772248 7.2554515 10.904894 C 7.557082 11.03754 7.896866 11.103862 8.2748125 11.103862 C 8.594614 11.103862 8.888972 11.057527 9.157895 10.964857 C 9.426819 10.872186 9.659398 10.739542 9.85564 10.56692 C 10.051881 10.394299 10.204511 10.185339 10.313534 9.940035 C 10.422558 9.69473 10.477068 9.417632 10.477068 9.10873 C 10.477068 8.803462 10.424375 8.533631 10.318986 8.299229 C 10.213597 8.064827 10.071869 7.867678 9.893798 7.707776 C 9.715726 7.547874 9.510403 7.427041 9.27782 7.345273 C 9.045237 7.263505 8.801756 7.222621 8.547369 7.222621 C 8.296616 7.222621 8.054043 7.2598705 7.819643 7.33437 C 7.585244 7.40887 7.377194 7.506082 7.195489 7.6260085 C 7.2063914 7.033644 7.313596 6.585743 7.517106 6.2822925 C 7.7206155 5.978842 7.994986 5.827119 8.340226 5.827119 C 8.481956 5.827119 8.607331 5.851649 8.716354 5.90071 C 8.825377 5.949771 8.916228 6.017001 8.98891 6.1024035 C 9.061592 6.187806 9.117012 6.28956 9.15517 6.40767 C 9.193328 6.525779 9.212407 6.6520636 9.212407 6.786527 L 10.48797 6.786527 C 10.484336 6.4667225 10.428009 6.183264 10.318986 5.9361425 C 10.209962 5.689021 10.060058 5.48097 9.869267 5.311982 C 9.678477 5.142995 9.453166 5.015802 9.193328 4.9303996 C 8.933489 4.8449974 8.652759 4.802297 8.351128 4.802297 Z M 8.209399 8.203834 L 8.209399 8.203834 C 8.492859 8.203834 8.725438 8.281058 8.907143 8.435509 C 9.088849 8.58996 9.1797 8.825267 9.1797 9.141437 C 9.1797 9.432168 9.099751 9.661115 8.93985 9.828286 C 8.77995 9.995456 8.565541 10.07904 8.296617 10.07904 C 8.147619 10.07904 8.010433 10.049059 7.885057 9.989095 C 7.75968 9.929132 7.64975 9.836463 7.555264 9.711085 C 7.460777 9.585707 7.383553 9.424899 7.323591 9.228656 C 7.263628 9.032412 7.224562 8.796197 7.206391 8.520002 C 7.35539 8.414612 7.517105 8.335571 7.691542 8.282876 C 7.865979 8.230181 8.038596 8.203834 8.209399 8.203834 Z M 4.9932334 9.795578 L 4.9932334 8.770757 L 4.1428574 8.770757 L 4.1428574 4.9113205 L 2.9109024 4.9113205 L -17763568e-22 8.912487 L -17763568e-22 9.795578 L 2.80188 9.795578 L 2.80188 10.994838 L 4.1428574 10.994838 L 4.1428574 9.795578 Z M 2.80188 8.770757 L 1.231955 8.770757 L 2.80188 6.633894 Z" fill="black"/>
      </g>
    </g>
  </g>
</svg>
