<svg xmlns:xl="http://www.w3.org/1999/xlink" xmlns="http://www.w3.org/2000/svg" xmlns:dc="http://purl.org/dc/elements/1.1/" version="1.1" viewBox="0 0 32 32" width="32" height="32">
  <style>
      path {
          fill: #000;
      }
      @media (prefers-color-scheme: dark) {
          path {
              fill: #fff;
          }
      }
  </style>
  <defs/>
  <g id="favicon-465" stroke-dasharray="none" stroke="none" fill="none" fill-opacity="1" stroke-opacity="1">
    <title>favicon-465</title>
    <g id="favicon-465_Layer_1">
      <title>Layer 1</title>
      <g id="Group_21">
        <title>465</title>
        <g id="Graphic_18">
          <path d="M 10.109396 19.582725 L 8.455831 19.582725 L 8.455831 21.914676 L 5.8482855 21.914676 L 5.8482855 19.582725 L .4 19.582725 L .4 17.86556 L 6.060281 10.085324 L 8.455831 10.085324 L 8.455831 17.589967 L 10.109396 17.589967 Z M 5.8482855 17.589967 L 5.8482855 13.434854 L 2.7955497 17.589967 Z" fill="black"/>
        </g>
        <g id="Graphic_19">
          <path d="M 16.638859 9.873329 C 17.225383 9.873329 17.771266 9.95636 18.276524 10.122424 C 18.781783 10.288488 19.219903 10.535813 19.590897 10.864408 C 19.96189 11.193003 20.253382 11.597557 20.465378 12.078082 C 20.677375 12.558608 20.786905 13.109791 20.793971 13.731648 L 18.313623 13.731648 C 18.313623 13.470185 18.276525 13.224626 18.202326 12.994963 C 18.128127 12.7653 18.020364 12.56744 17.879033 12.401376 C 17.737702 12.235312 17.56104 12.104582 17.349044 12.009184 C 17.137047 11.913785 16.893255 11.866087 16.61766 11.866087 C 15.946337 11.866087 15.41282 12.161111 15.017093 12.751168 C 14.621366 13.341226 14.412906 14.212165 14.391706 15.364013 C 14.745034 15.130817 15.149588 14.94179 15.60538 14.796925 C 16.061173 14.652061 16.532858 14.57963 17.02045 14.57963 C 17.51511 14.57963 17.988561 14.659127 18.44082 14.818125 C 18.89308 14.977122 19.292334 15.212082 19.638596 15.52301 C 19.984857 15.833938 20.260448 16.217293 20.465378 16.673086 C 20.670308 17.128879 20.772772 17.653562 20.772772 18.247153 C 20.772772 18.84781 20.666775 19.386626 20.454778 19.863619 C 20.242782 20.34061 19.94599 20.746932 19.564397 21.082593 C 19.182803 21.418254 18.73055 21.67618 18.207626 21.856377 C 17.6847 22.036574 17.112318 22.12667 16.490462 22.12667 C 15.75554 22.12667 15.094827 21.997709 14.508303 21.73978 C 13.92178 21.48185 13.423595 21.098495 13.013735 20.589704 C 12.603875 20.080912 12.289418 19.450231 12.070355 18.697643 C 11.851292 17.945055 11.741762 17.074116 11.741762 16.084798 C 11.741762 15.060148 11.858358 14.159176 12.091554 13.381855 C 12.32475 12.604534 12.655107 11.956188 13.082633 11.436796 C 13.51016 10.917404 14.02601 10.526983 14.630201 10.26552 C 15.234391 10.004058 15.903937 9.873329 16.638859 9.873329 Z M 16.363264 16.48759 C 16.031136 16.48759 15.69548 16.538821 15.356286 16.641287 C 15.017091 16.743752 14.702634 16.897447 14.412905 17.102377 C 14.448238 17.639435 14.524203 18.098754 14.6408 18.480348 C 14.757399 18.861942 14.90756 19.174632 15.091291 19.418428 C 15.275022 19.662224 15.488782 19.842419 15.732578 19.959017 C 15.976374 20.075615 16.243132 20.133913 16.53286 20.133913 C 17.055786 20.133913 17.472706 19.971385 17.783635 19.646323 C 18.094563 19.321262 18.250025 18.876076 18.250025 18.310751 C 18.250025 17.695961 18.073364 17.238409 17.720036 16.93808 C 17.366708 16.637752 16.914456 16.48759 16.363264 16.48759 Z" fill="black"/>
        </g>
        <g id="Graphic_20">
          <path d="M 25.521472 14.812825 C 25.797068 14.643228 26.127424 14.501899 26.51255 14.388834 C 26.897678 14.275769 27.330498 14.219237 27.811024 14.219237 C 28.41168 14.219237 28.950497 14.314634 29.42749 14.505431 C 29.904482 14.696228 30.309036 14.964753 30.641164 15.311014 C 30.973292 15.657276 31.227684 16.068896 31.40435 16.545889 C 31.581012 17.02288 31.669343 17.547565 31.669343 18.119955 C 31.669343 18.70648 31.57218 19.245296 31.37785 19.736421 C 31.18352 20.227547 30.90086 20.649767 30.529867 21.003095 C 30.158873 21.356423 29.697787 21.632014 29.146596 21.829877 C 28.595405 22.02774 27.96649 22.12667 27.259835 22.12667 C 26.609712 22.12667 26.01083 22.040107 25.463173 21.866977 C 24.915515 21.693846 24.44383 21.439454 24.048103 21.103793 C 23.652376 20.768131 23.34322 20.354744 23.120622 19.863619 C 22.898026 19.372493 22.78673 18.80541 22.78673 18.162355 L 25.267077 18.162355 C 25.274144 18.515682 25.32891 18.817773 25.431374 19.068635 C 25.53384 19.319498 25.671635 19.524425 25.844765 19.683423 C 26.017896 19.84242 26.21929 19.95725 26.448952 20.027915 C 26.678615 20.09858 26.927708 20.133913 27.196237 20.133913 C 27.832227 20.133913 28.309212 19.951952 28.627207 19.588025 C 28.9452 19.224097 29.104197 18.755945 29.104197 18.183554 C 29.104197 17.55463 28.922236 17.061746 28.558308 16.704885 C 28.19438 16.348024 27.676763 16.169596 27.00544 16.169596 C 26.560248 16.169596 26.148627 16.24556 25.770567 16.397492 C 25.392506 16.549423 25.033884 16.74905 24.69469 16.99638 L 23.147122 16.614787 L 23.634712 10.085324 L 30.86376 10.085324 L 30.86376 12.247679 L 25.712268 12.247679 Z" fill="black"/>
        </g>
      </g>
    </g>
  </g>
</svg>
